PathFileType	4	(X/Y/Z)	/Users/itak/Documents/Research/Walk-IL/dataset/trc/00175_00008.trc
DataRate	CameraRate	NumFrames	NumMarkers	Units	OrigDataRate	OrigDataStartFrame	OrigNumFrames
100.000000	100.000000	4	53	mm	100.000000	73	589
Frame#	Time	RPSI			LPSI			L3			STRN			T10			C7			CLAV			RBAK			LBAK			LSHO			LUPA			LAEL			LAOL			LWTS			LWPS			LFRA			LIFD			LHPS			LHTS			RSHO			RUPA			RAEL			RAOL			RWTS			RWPS			RFRA			RIFD			RHTS			RHPS			RBHD			LFHD			RFHD			LBHD			LHIP			RHIP			RASI			LASI			LKNE			LTHI			LANK			LTIP			LTOE			LMT1			LMT5			LHEE			RKNE			RTHI			RANK			RTIP			RTOE			RMT1			RMT5			RHEE			
		X1	Y1	Z1	X2	Y2	Z2	X3	Y3	Z3	X4	Y4	Z4	X5	Y5	Z5	X6	Y6	Z6	X7	Y7	Z7	X8	Y8	Z8	X9	Y9	Z9	X10	Y10	Z10	X11	Y11	Z11	X12	Y12	Z12	X13	Y13	Z13	X14	Y14	Z14	X15	Y15	Z15	X16	Y16	Z16	X17	Y17	Z17	X18	Y18	Z18	X19	Y19	Z19	X20	Y20	Z20	X21	Y21	Z21	X22	Y22	Z22	X23	Y23	Z23	X24	Y24	Z24	X25	Y25	Z25	X26	Y26	Z26	X27	Y27	Z27	X28	Y28	Z28	X29	Y29	Z29	X30	Y30	Z30	X31	Y31	Z31	X32	Y32	Z32	X33	Y33	Z33	X34	Y34	Z34	X35	Y35	Z35	X36	Y36	Z36	X37	Y37	Z37	X38	Y38	Z38	X39	Y39	Z39	X40	Y40	Z40	X41	Y41	Z41	X42	Y42	Z42	X43	Y43	Z43	X44	Y44	Z44	X45	Y45	Z45	X46	Y46	Z46	X47	Y47	Z47	X48	Y48	Z48	X49	Y49	Z49	X50	Y50	Z50	X51	Y51	Z51	X52	Y52	Z52	X53	Y53	Z53	

74	0.73	848.298095703125	1051.876586914062	234.6099853515625	850.51708984375	1048.474487304688	110.3302917480469	849.2600708007812	1089.065673828125	175.1950988769531	1103.15625	1299.484619140625	159.3974761962891	815.2938842773438	1241.611572265625	169.3174285888672	869.1397705078125	1513.769897460938	151.6222229003906	1071.281860351562	1411.871337890625	149.6227569580078	812.4708862304688	1337.522705078125	264.5433959960938	859.3583374023438	1487.0849609375	52.18826675415039	932.572021484375	1473.577026367188	-29.13662338256836	902.366943359375	1338.954467773438	-98.540283203125	927.9249877929688	1120.452758789062	-111.5752182006836	874.6843872070312	1106.396118164062	-41.46807479858398	1045.183959960938	895.2429809570312	-63.4806022644043	967.8714599609375	868.8223266601562	-109.1508483886719	947.5425415039062	1010.0966796875	-120.5968627929688	1066.127807617188	708.6951293945312	-35.49637603759766	990.9971313476562	799.8634033203125	-100.7147750854492	1060.468627929688	817.1841430664062	-80.29907989501953	941.4039916992188	1494.81787109375	331.6063537597656	924.7682495117188	1428.026733398438	401.793701171875	919.369873046875	1139.957885742188	457.1714172363281	913.9531860351562	1130.096923828125	360.8429870605469	1062.046142578125	915.8880004882812	435.7719116210938	991.434326171875	898.6864013671875	486.9016723632812	946.83984375	1068.78076171875	475.4249572753906	1078.546630859375	730.8558959960938	411.1400451660156	1091.458129882812	823.6904907226562	444.1824645996094	1021.739135742188	816.1226196289062	483.3745422363281	950.2568969726562	1688.033935546875	223.0762481689453	1082.216674804688	1713.265747070312	51.80110549926758	1114.49755859375	1721.75537109375	176.7392883300781	907.9078369140625	1687.07080078125	91.86829376220703	954.2711181640625	987.6878662109375	-7.194842338562012	1007.597839355469	1013.024108886719	355.2770690917969	1087.0546875	1039.747680664062	298.4762878417969	1078.467163085938	1029.249633789062	39.55729293823242	959.9114379882812	492.9796142578125	25.99453544616699	968.6099243164062	635.482421875	-2.740899801254272	854.879638671875	40.52888488769531	23.12058258056641	909.7735595703125	272.3341064453125	11.2470235824585	1075.632568359375	36.74131393432617	21.98026657104492	1031.145751953125	37.24496841430664	75.63655853271484	957.9996337890625	32.87422180175781	-28.867431640625	812.5758056640625	38.98006057739258	98.04895782470703	994.556396484375	514.1144409179688	341.517333984375	1053.320678710938	780.95263671875	365.0505981445312	876.4686889648438	37.47083282470703	352.4307556152344	993.8491821289062	394.8325500488281	323.9605102539062	1099.53857421875	39.42562484741211	310.5654296875	1041.299682617188	37.15334701538086	267.6630249023438	990.4219360351562	34.19322204589844	384.9847106933594	822.2416381835938	37.04487991333008	286.820068359375	
75	0.74	848.4349975585938	1051.882690429688	234.4742736816406	850.7172241210938	1048.453735351562	110.1969757080078	849.3718872070312	1089.036376953125	175.0710906982422	1103.243408203125	1299.469970703125	159.4040069580078	815.418212890625	1241.610473632812	169.1851959228516	869.2147216796875	1513.743408203125	151.4906921386719	1071.372314453125	1411.846801757812	149.6118011474609	812.5241088867188	1337.499755859375	264.4065551757812	859.5184326171875	1487.059204101562	52.02933883666992	932.6846923828125	1473.425170898438	-29.20316505432129	902.5835571289062	1338.91796875	-98.6241455078125	928.2232666015625	1120.400634765625	-111.628547668457	874.9741821289062	1106.386352539062	-41.50320053100586	1045.57958984375	895.3009033203125	-63.39247894287109	968.2755737304688	868.8179931640625	-109.0973739624023	947.8606567382812	1010.072814941406	-120.593391418457	1066.605590820312	708.7337646484375	-35.32824325561523	991.4661865234375	799.8358154296875	-100.6110610961914	1060.893676757812	817.28173828125	-80.17159271240234	941.38916015625	1494.80859375	331.5014343261719	924.7127075195312	1428.040771484375	401.6941223144531	919.2063598632812	1140.034301757812	457.2347412109375	913.8321533203125	1130.11181640625	360.9207458496094	1061.88232421875	915.905029296875	436.0679626464844	991.1676635742188	898.7532348632812	487.1654968261719	946.6652221679688	1068.86083984375	475.5534057617188	1078.110107421875	730.8744506835938	411.4186096191406	1091.187744140625	823.6705932617188	444.5311584472656	1021.468139648438	816.171630859375	483.6996765136719	950.3284301757812	1688.024536132812	223.0397491455078	1082.435791015625	1713.254760742188	51.87813568115234	1114.62890625	1721.710693359375	176.8018035888672	908.0503540039062	1687.096069335938	91.80820465087891	954.9683227539062	987.565673828125	-7.175798892974854	1007.686462402344	1013.020141601562	355.223876953125	1087.133056640625	1039.735961914062	298.4442749023438	1078.612426757812	1029.224609375	39.50810241699219	960.0014038085938	492.9384765625	25.97751617431641	968.7125244140625	635.44482421875	-2.745073080062866	854.8839721679688	40.54022216796875	23.12099266052246	909.8297119140625	272.303955078125	11.23855781555176	1075.63916015625	36.73717880249023	21.97545051574707	1031.15185546875	37.24490737915039	75.63907623291016	957.9979248046875	32.87271499633789	-28.86789703369141	812.580078125	38.99898910522461	98.04790496826172	994.5680541992188	514.1246337890625	341.5023803710938	1053.288696289062	780.9104614257812	365.1038818359375	876.4688110351562	37.4715576171875	352.4248352050781	993.8599853515625	394.8415222167969	323.9368896484375	1099.54541015625	39.41812133789062	310.5638732910156	1041.310791015625	37.15159606933594	267.6578674316406	990.4218139648438	34.19330215454102	384.9775390625	822.2417602539062	37.04854202270508	286.8076782226562	
76	0.75	848.5797729492188	1051.888549804688	234.3325958251953	850.9136352539062	1048.431884765625	110.0720062255859	849.4998168945312	1089.005737304688	174.9310913085938	1103.33447265625	1299.458984375	159.4062957763672	815.5601806640625	1241.607666015625	169.0228729248047	869.289794921875	1513.722412109375	151.3595123291016	1071.462768554688	1411.824829101562	149.5944366455078	812.5808715820312	1337.47705078125	264.2649536132812	859.68115234375	1487.038818359375	51.86134338378906	932.8300170898438	1473.306518554688	-29.28694915771484	902.7889404296875	1338.887573242188	-98.70756530761719	928.5150146484375	1120.338623046875	-111.684944152832	875.2533569335938	1106.392944335938	-41.54873275756836	1045.97802734375	895.3798828125	-63.32529830932617	968.6534423828125	868.8079223632812	-109.0572509765625	948.1463012695312	1010.055236816406	-120.5886840820312	1067.048217773438	708.76220703125	-35.16964340209961	991.9116821289062	799.8067016601562	-100.5232391357422	1061.30859375	817.3729248046875	-80.05583190917969	941.375732421875	1494.802612304688	331.3907470703125	924.6649780273438	1428.053955078125	401.5927429199219	919.0599975585938	1140.110595703125	457.287353515625	913.7410278320312	1130.120849609375	360.9884033203125	1061.752563476562	915.9321899414062	436.3398132324219	990.9443359375	898.8228149414062	487.4093627929688	946.5184326171875	1068.940307617188	475.6673889160156	1077.733642578125	730.89794921875	411.6757202148438	1090.96240234375	823.6608276367188	444.8491516113281	1021.246520996094	816.22509765625	484.0002746582031	950.4105224609375	1688.019897460938	222.9989318847656	1082.658813476562	1713.2392578125	51.94720458984375	1114.7626953125	1721.66845703125	176.8570861816406	908.19482421875	1687.125854492188	91.74515533447266	955.7008666992188	987.4561767578125	-7.142390727996826	1007.765808105469	1013.017333984375	355.1664733886719	1087.210693359375	1039.72509765625	298.4163818359375	1078.759765625	1029.193481445312	39.46635437011719	960.092529296875	492.8966979980469	25.95785331726074	968.823486328125	635.4028930664062	-2.751350164413452	854.8883056640625	40.55014038085938	23.12134742736816	909.8917236328125	272.2745971679688	11.22788047790527	1075.646728515625	36.73248291015625	21.97136306762695	1031.159057617188	37.24504089355469	75.63923645019531	957.9967651367188	32.87060165405273	-28.86906051635742	812.5860595703125	39.01948928833008	98.04766845703125	994.582275390625	514.1371459960938	341.489501953125	1053.269409179688	780.8853149414062	365.1421508789062	876.4692993164062	37.47274780273438	352.4202880859375	993.8723754882812	394.8485412597656	323.9114379882812	1099.552612304688	39.41193389892578	310.5617370605469	1041.319213867188	37.14936065673828	267.6540832519531	990.4224853515625	34.1934814453125	384.9715270996094	822.239990234375	37.05397033691406	286.7938232421875	
77	0.76	848.7323608398438	1051.890747070312	234.1857757568359	851.1019287109375	1048.409423828125	109.9565734863281	849.6436157226562	1088.973999023438	174.7768402099609	1103.428955078125	1299.450805664062	159.4038238525391	815.7127075195312	1241.604614257812	168.8332366943359	869.3658447265625	1513.706420898438	151.2316284179688	1071.553344726562	1411.805541992188	149.5704345703125	812.6430053710938	1337.455200195312	264.1171264648438	859.8457641601562	1487.022827148438	51.6884765625	933.0067138671875	1473.224487304688	-29.38751029968262	902.9905395507812	1338.862915039062	-98.79351806640625	928.7994995117188	1120.270263671875	-111.7435607910156	875.516357421875	1106.40869140625	-41.60797882080078	1046.371337890625	895.4754638671875	-63.27504730224609	969.013671875	868.7943115234375	-109.0271987915039	948.4096069335938	1010.044006347656	-120.5827941894531	1067.4560546875	708.7837524414062	-35.02308654785156	992.32763671875	799.7779541015625	-100.4539566040039	1061.71337890625	817.4525146484375	-79.95343017578125	941.3661499023438	1494.800537109375	331.2762145996094	924.6271362304688	1428.067260742188	401.4892578125	918.9302368164062	1140.186645507812	457.3267211914062	913.6791381835938	1130.1259765625	361.0408935546875	1061.652587890625	915.9682006835938	436.5867614746094	990.761962890625	898.8941040039062	487.6300964355469	946.3955688476562	1069.018310546875	475.7643737792969	1077.424926757812	730.927490234375	411.9173278808594	1090.779296875	823.6620483398438	445.1378479003906	1021.069580078125	816.2828369140625	484.274169921875	950.5045166015625	1688.01904296875	222.9538726806641	1082.880737304688	1713.22021484375	52.00574493408203	1114.89892578125	1721.629272460938	176.905029296875	908.3428344726562	1687.159912109375	91.67879486083984	956.461181640625	987.3593139648438	-7.099704265594482	1007.834716796875	1013.016174316406	355.105224609375	1087.286743164062	1039.715454101562	298.39208984375	1078.908203125	1029.15576171875	39.43376922607422	960.1847534179688	492.8554992675781	25.9342041015625	968.94482421875	635.3570556640625	-2.760363578796387	854.8927001953125	40.55806350708008	23.12213897705078	909.9586791992188	272.2476806640625	11.21443653106689	1075.655395507812	36.72774887084961	21.96883010864258	1031.16796875	37.24585342407227	75.63683319091797	957.99609375	32.86760330200195	-28.87035942077637	812.593994140625	39.04095840454102	98.04834747314453	994.5999145507812	514.15185546875	341.4781494140625	1053.26416015625	780.8732299804688	365.1632385253906	876.4718627929688	37.47478485107422	352.417724609375	993.885986328125	394.8540649414062	323.8839721679688	1099.559936523438	39.40721893310547	310.5592651367188	1041.324951171875	37.14695358276367	267.6522521972656	990.4237060546875	34.1935920715332	384.9679870605469	822.2371215820312	37.06130218505859	286.7786865234375	
